<?xml version="1.0" standalone="no"?>
<!DOCTYPE svg PUBLIC "-//W3C//DTD SVG 20010904//EN"
 "http://www.w3.org/TR/2001/REC-SVG-20010904/DTD/svg10.dtd">
<svg version="1.0" xmlns="http://www.w3.org/2000/svg"
 width="500.000000pt" height="500.000000pt" viewBox="0 0 500.000000 500.000000"
 preserveAspectRatio="xMidYMid meet">

<g transform="translate(0.000000,500.000000) scale(0.100000,-0.100000)"
fill="#000000" stroke="none">
<path d="M1196 2876 c-39 -15 -55 -31 -68 -71 -9 -28 -9 -238 0 -251 4 -6 53
-26 110 -45 l103 -34 -3 -70 -3 -70 -45 0 -45 0 -3 53 -3 53 -57 -3 -57 -3 -3
-47 c-5 -73 14 -126 51 -148 25 -16 50 -20 117 -20 146 0 170 29 170 205 0 61
-4 116 -8 123 -5 7 -53 27 -108 45 l-99 34 -3 66 c-3 63 -1 68 22 78 13 6 36
9 50 5 22 -5 25 -12 28 -59 l3 -52 55 0 55 0 3 55 c4 71 -12 124 -44 145 -37
24 -166 30 -218 11z"/>
<path d="M1675 2880 c-5 -8 -145 -641 -145 -656 0 -3 26 -4 57 -2 l58 3 10 60
10 60 78 3 c63 2 77 0 77 -12 0 -8 5 -38 11 -66 l11 -50 54 0 c36 0 54 4 54
13 0 28 -134 633 -143 645 -11 15 -123 17 -132 2z m115 -412 c0 -15 -9 -18
-50 -18 -27 0 -50 3 -50 8 0 10 39 211 46 242 5 18 13 -9 30 -95 13 -66 23
-128 24 -137z"/>
<path d="M2030 2554 l0 -336 135 4 c132 3 135 4 162 31 l28 27 3 263 c2 246 1
264 -17 294 -26 42 -69 53 -203 53 l-108 0 0 -336z m203 213 c16 -11 17 -33
15 -222 l-3 -210 -52 -3 -53 -3 0 225 0 226 38 0 c21 0 46 -6 55 -13z"/>
<path d="M2445 2878 c-3 -7 -4 -157 -3 -333 l3 -320 163 -3 162 -2 0 55 0 55
-105 0 -105 0 -2 278 -3 277 -53 3 c-36 2 -54 -1 -57 -10z"/>
<path d="M2857 2883 c-4 -3 -7 -154 -7 -335 l0 -328 165 0 165 0 0 55 0 55
-110 0 -110 0 0 85 0 84 88 3 87 3 3 29 c2 15 1 39 -2 52 -6 23 -10 24 -91 24
l-85 0 0 80 0 79 108 3 107 3 3 58 3 57 -159 0 c-87 0 -162 -3 -165 -7z"/>
<path d="M3270 2556 l0 -336 55 0 55 0 0 110 0 110 28 0 c28 0 30 -3 58 -107
l29 -108 44 -3 c73 -5 72 -6 39 119 -27 100 -28 113 -14 121 36 20 46 63 46
198 0 143 -11 189 -52 211 -14 8 -74 15 -155 17 l-133 4 0 -336z m214 208 c12
-11 16 -36 16 -99 0 -100 -10 -115 -76 -115 l-44 0 0 115 0 115 44 0 c27 0 51
-6 60 -16z"/>
</g>
</svg>
